<svg width="18" height="18" viewBox="0 0 18 18" fill="none" xmlns="http://www.w3.org/2000/svg">
<circle cx="9" cy="9" r="8.5" stroke="black"/>
<path d="M4 9C4 11.7614 6.23858 14 9 14C11.7614 14 14 11.7614 14 9H13C13 11.2091 11.2091 13 9 13C6.79086 13 5 11.2091 5 9H4Z" fill="black"/>
<path d="M10.175 5.825L10.825 5.175L11.5 5.85L12.175 5.175L12.825 5.825L12.15 6.5L12.825 7.175L12.175 7.825L11.5 7.15L10.825 7.825L10.175 7.175L10.85 6.5L10.175 5.825Z" fill="black"/>
<path d="M5.17499 5.825L5.825 5.175L6.5 5.85L7.175 5.175L7.825 5.825L7.15 6.5L7.825 7.175L7.175 7.825L6.5 7.15L5.825 7.825L5.17499 7.175L5.84999 6.5L5.17499 5.825Z" fill="black"/>
</svg>
